<svg width="125" height="41" viewBox="0 0 125 41" fill="none" xmlns="http://www.w3.org/2000/svg">
<rect x="15.7949" y="41" width="7.37082" height="3.15892" transform="rotate(-90 15.7949 41)" fill="white"/>
<mask id="mask0_558_2049" style="mask-type:alpha" maskUnits="userSpaceOnUse" x="0" y="0" width="36" height="34">
<rect y="11.7004" width="13.1622" height="24.7449" transform="rotate(-26.999 0 11.7004)" fill="#C4C4C4"/>
<rect x="11.7148" y="20.4009" width="13.1622" height="24.7449" transform="rotate(-108.7 11.7148 20.4009)" fill="#C4C4C4"/>
</mask>
<g mask="url(#mask0_558_2049)">
<circle cx="17.3746" cy="17.3082" r="9.74001" stroke="white" stroke-width="2.63244"/>
</g>
<path d="M46.2195 30.0916V15.3787H55.6449V17.6129H48.8847V21.6073H54.9983V23.8415H48.8847V30.0916H46.2195ZM57.9581 30.0916V19.0569H60.5587V30.0916H57.9581ZM59.2656 17.4908C58.8537 17.4908 58.4993 17.3543 58.2024 17.0813C57.9054 16.8036 57.757 16.4707 57.757 16.0828C57.757 15.69 57.9054 15.3572 58.2024 15.0842C58.4993 14.8064 58.8537 14.6675 59.2656 14.6675C59.6823 14.6675 60.0367 14.8064 60.3288 15.0842C60.6258 15.3572 60.7742 15.69 60.7742 16.0828C60.7742 16.4707 60.6258 16.8036 60.3288 17.0813C60.0367 17.3543 59.6823 17.4908 59.2656 17.4908ZM65.8336 23.626V30.0916H63.233V19.0569H65.7186V20.932H65.8479C66.1018 20.3141 66.5065 19.8232 67.062 19.4592C67.6224 19.0952 68.3144 18.9133 69.1382 18.9133C69.8997 18.9133 70.563 19.0761 71.1282 19.4018C71.6981 19.7274 72.1387 20.1992 72.45 20.817C72.7661 21.4348 72.9218 22.1844 72.917 23.0656V30.0916H70.3164V23.4679C70.3164 22.7303 70.1248 22.1532 69.7417 21.7366C69.3633 21.3199 68.8389 21.1116 68.1684 21.1116C67.7134 21.1116 67.3087 21.2121 66.9543 21.4133C66.6047 21.6096 66.3293 21.8946 66.1281 22.2682C65.9318 22.6417 65.8336 23.0943 65.8336 23.626ZM79.6556 30.2855C78.7887 30.2855 78.0128 30.0628 77.328 29.6174C76.6431 29.172 76.1019 28.5254 75.7044 27.6777C75.3069 26.83 75.1081 25.8003 75.1081 24.5886C75.1081 23.3625 75.3093 22.328 75.7116 21.4851C76.1187 20.6374 76.667 19.998 77.3567 19.567C78.0464 19.1312 78.8151 18.9133 79.6628 18.9133C80.3093 18.9133 80.8409 19.0234 81.2576 19.2437C81.6743 19.4592 82.0047 19.7203 82.249 20.0268C82.4933 20.3285 82.6824 20.6135 82.8165 20.8817H82.9243V15.3787H85.5321V30.0916H82.9746V28.353H82.8165C82.6824 28.6212 82.4885 28.9062 82.2346 29.2079C81.9808 29.5049 81.6455 29.7587 81.2289 29.9694C80.8122 30.1802 80.2878 30.2855 79.6556 30.2855ZM80.3812 28.1519C80.9319 28.1519 81.4013 28.0034 81.7892 27.7065C82.1772 27.4047 82.4717 26.9857 82.6729 26.4493C82.874 25.9129 82.9746 25.2879 82.9746 24.5742C82.9746 23.8606 82.874 23.2404 82.6729 22.7136C82.4765 22.1868 82.1843 21.7773 81.7964 21.4851C81.4133 21.193 80.9415 21.0469 80.3812 21.0469C79.8017 21.0469 79.3179 21.1978 78.93 21.4995C78.5421 21.8012 78.2499 22.2179 78.0536 22.7495C77.8572 23.2811 77.759 23.8894 77.759 24.5742C77.759 25.2639 77.8572 25.8793 78.0536 26.4205C78.2547 26.9569 78.5492 27.3808 78.9372 27.6921C79.3299 27.9986 79.8112 28.1519 80.3812 28.1519ZM88.4183 30.0916V15.3787H97.9874V17.6129H91.0835V21.6073H97.4917V23.8415H91.0835V27.8573H98.0448V30.0916H88.4183ZM104.686 30.2855C103.82 30.2855 103.044 30.0628 102.359 29.6174C101.674 29.172 101.133 28.5254 100.735 27.6777C100.338 26.83 100.139 25.8003 100.139 24.5886C100.139 23.3625 100.34 22.328 100.742 21.4851C101.15 20.6374 101.698 19.998 102.388 19.567C103.077 19.1312 103.846 18.9133 104.694 18.9133C105.34 18.9133 105.872 19.0234 106.288 19.2437C106.705 19.4592 107.036 19.7203 107.28 20.0268C107.524 20.3285 107.713 20.6135 107.847 20.8817H107.955V15.3787H110.563V30.0916H108.005V28.353H107.847C107.713 28.6212 107.519 28.9062 107.265 29.2079C107.012 29.5049 106.676 29.7587 106.26 29.9694C105.843 30.1802 105.319 30.2855 104.686 30.2855ZM105.412 28.1519C105.963 28.1519 106.432 28.0034 106.82 27.7065C107.208 27.4047 107.503 26.9857 107.704 26.4493C107.905 25.9129 108.005 25.2879 108.005 24.5742C108.005 23.8606 107.905 23.2404 107.704 22.7136C107.507 22.1868 107.215 21.7773 106.827 21.4851C106.444 21.193 105.972 21.0469 105.412 21.0469C104.833 21.0469 104.349 21.1978 103.961 21.4995C103.573 21.8012 103.281 22.2179 103.084 22.7495C102.888 23.2811 102.79 23.8894 102.79 24.5742C102.79 25.2639 102.888 25.8793 103.084 26.4205C103.286 26.9569 103.58 27.3808 103.968 27.6921C104.361 27.9986 104.842 28.1519 105.412 28.1519ZM120.367 25.4507V19.0569H122.968V30.0916H120.446V28.1303H120.331C120.082 28.7481 119.673 29.2534 119.103 29.6461C118.538 30.0389 117.841 30.2352 117.012 30.2352C116.289 30.2352 115.65 30.0748 115.094 29.7539C114.543 29.4282 114.112 28.9565 113.801 28.3387C113.49 27.716 113.334 26.9641 113.334 26.0829V19.0569H115.935V25.6806C115.935 26.3798 116.126 26.9354 116.509 27.3473C116.893 27.7591 117.396 27.9651 118.018 27.9651C118.401 27.9651 118.772 27.8717 119.132 27.6849C119.491 27.4981 119.785 27.2203 120.015 26.8516C120.25 26.478 120.367 26.011 120.367 25.4507Z" fill="white"/>
</svg>
