<svg width="68" height="64" viewBox="0 0 68 64" fill="none" xmlns="http://www.w3.org/2000/svg">
<path d="M10.4326 5.69268L28.7388 0.795663C35.4099 -0.988886 40.2423 1.92232 42.1003 8.84512L47.1941 27.824C49.0521 34.7467 46.3252 39.6801 39.6541 41.4647L21.3479 46.3617C14.6768 48.1463 9.8618 45.2304 8.00377 38.3076L2.90996 19.3287C1.05194 12.4059 3.76149 7.47723 10.4326 5.69268Z" fill="url(#paint0_linear_44_109)"/>
<path d="M15.5807 12.7008L28.0137 9.37489C32.5445 8.16289 35.77 9.92969 36.9323 14.26L40.1186 26.1317C41.2808 30.4621 39.3722 33.6023 34.8415 34.8143L22.4084 38.1402C17.8776 39.3522 14.6639 37.5823 13.5017 33.2519L10.3154 21.3802C9.15312 17.0499 11.0499 13.9128 15.5807 12.7008Z" fill="#0062FF" fill-opacity="0.5"/>
<path d="M44.8261 9.92041H26.1201C18.8059 9.92041 13.8867 15.0469 13.8867 22.672V40.2701C13.8867 47.8736 18.8059 53.0001 26.1201 53.0001H44.8261C52.1402 53.0001 57.0378 47.8736 57.0378 40.2701V22.672C57.0378 15.0469 52.1402 9.92041 44.8261 9.92041Z" fill="#3EA0FE" fill-opacity="0.35"/>
<mask id="mask0_44_109" style="mask-type:luminance" maskUnits="userSpaceOnUse" x="12" y="8" width="47" height="47">
<path d="M58.8867 8.92041H12.8867V54.9204H58.8867V8.92041Z" fill="white"/>
<path d="M44.8261 9.92041H26.1201C18.8059 9.92041 13.8867 15.0469 13.8867 22.672V40.2701C13.8867 47.8736 18.8059 53.0001 26.1201 53.0001H44.8261C52.1402 53.0001 57.0378 47.8736 57.0378 40.2701V22.672C57.0378 15.0469 52.1402 9.92041 44.8261 9.92041Z" fill="black"/>
</mask>
<g mask="url(#mask0_44_109)">
<path d="M44.8261 10.9204C45.3784 10.9204 45.8261 10.4727 45.8261 9.92041C45.8261 9.36811 45.3784 8.92041 44.8261 8.92041V10.9204ZM44.8261 8.92041C44.2738 8.92041 43.8261 9.36811 43.8261 9.92041C43.8261 10.4727 44.2738 10.9204 44.8261 10.9204V8.92041ZM44.8261 8.92041H26.1201V10.9204H44.8261V8.92041ZM26.1201 8.92041C22.2207 8.92041 18.8916 10.2924 16.539 12.7445C14.1899 15.193 12.8867 18.6422 12.8867 22.672H14.8867C14.8867 19.0767 16.0432 16.1502 17.9822 14.1291C19.9178 12.1117 22.7053 10.9204 26.1201 10.9204V8.92041ZM12.8867 22.672V40.2701H14.8867V22.672H12.8867ZM12.8867 40.2701C12.8867 44.2898 14.1903 47.7337 16.5394 50.1792C18.8919 52.6282 22.2208 54.0001 26.1201 54.0001V52.0001C22.7052 52.0001 19.9175 50.8088 17.9818 48.7937C16.0427 46.775 14.8867 43.8539 14.8867 40.2701H12.8867ZM26.1201 54.0001H44.8261V52.0001H26.1201V54.0001ZM44.8261 54.0001C48.7255 54.0001 52.0496 52.628 54.3968 50.1783C56.7404 47.7323 58.0378 44.2886 58.0378 40.2701H56.0378C56.0378 43.8551 54.8865 46.7764 52.9527 48.7946C51.0226 50.809 48.2407 52.0001 44.8261 52.0001V54.0001ZM58.0378 40.2701V22.672H56.0378V40.2701H58.0378ZM58.0378 22.672C58.0378 18.6434 56.7408 15.1943 54.3972 12.7454C52.0499 10.2926 48.7256 8.92041 44.8261 8.92041V10.9204C48.2407 10.9204 51.0223 12.1115 52.9523 14.1282C54.886 16.1488 56.0378 19.0755 56.0378 22.672H58.0378Z" fill="url(#paint1_linear_44_109)"/>
</g>
<g filter="url(#filter1_d_44_109)">
<path fill-rule="evenodd" clip-rule="evenodd" d="M22.5535 23.9776C22.5535 26.9584 24.9803 29.3845 27.967 29.3845C30.9514 29.3845 33.3804 26.9584 33.3804 23.9776C33.3804 20.9967 30.9514 18.5706 27.967 18.5706C24.9803 18.5706 22.5535 20.9967 22.5535 23.9776ZM52.067 43.8208C52.8425 41.9817 53.2194 39.7497 52.494 37.8927C52.2522 37.2767 51.8905 36.7031 51.383 36.1986C50.0519 34.8795 48.808 33.6475 47.3289 32.7369C45.0067 31.2905 43.2138 33.3216 42.7302 33.9711C42.3444 34.4901 42.0034 35.0535 41.6577 35.6245C41.5857 35.7435 41.5134 35.8628 41.4405 35.9821L41.4233 36.0106C40.3948 37.7114 39.2137 39.6645 37.1773 40.8032C34.2016 42.4481 31.9425 40.9326 30.3174 39.83C29.7075 39.4194 29.1149 39.031 28.5246 38.7721C27.0694 38.1449 25.7601 38.8591 23.8169 41.3232C22.7974 42.6111 21.7866 43.8878 20.7628 45.16C20.1506 45.9211 20.2966 47.0951 21.1222 47.604C22.4402 48.4142 24.0479 48.8494 25.8647 48.8494H44.1222C45.1526 48.8494 46.1852 48.7088 47.1699 48.3874C49.3875 47.6642 51.1477 46.0081 52.067 43.8208Z" fill="url(#paint2_linear_44_109)"/>
<mask id="mask1_44_109" style="mask-type:luminance" maskUnits="userSpaceOnUse" x="20" y="18" width="33" height="31">
<path fill-rule="evenodd" clip-rule="evenodd" d="M22.5535 23.9776C22.5535 26.9584 24.9803 29.3845 27.967 29.3845C30.9514 29.3845 33.3804 26.9584 33.3804 23.9776C33.3804 20.9967 30.9514 18.5706 27.967 18.5706C24.9803 18.5706 22.5535 20.9967 22.5535 23.9776ZM52.067 43.8208C52.8425 41.9817 53.2194 39.7497 52.494 37.8927C52.2522 37.2767 51.8905 36.7031 51.383 36.1986C50.0519 34.8795 48.808 33.6475 47.3289 32.7369C45.0067 31.2905 43.2138 33.3216 42.7302 33.9711C42.3444 34.4901 42.0034 35.0535 41.6577 35.6245C41.5857 35.7435 41.5134 35.8628 41.4405 35.9821L41.4233 36.0106C40.3948 37.7114 39.2137 39.6645 37.1773 40.8032C34.2016 42.4481 31.9425 40.9326 30.3174 39.83C29.7075 39.4194 29.1149 39.031 28.5246 38.7721C27.0694 38.1449 25.7601 38.8591 23.8169 41.3232C22.7974 42.6111 21.7866 43.8878 20.7628 45.16C20.1506 45.9211 20.2966 47.0951 21.1222 47.604C22.4402 48.4142 24.0479 48.8494 25.8647 48.8494H44.1222C45.1526 48.8494 46.1852 48.7088 47.1699 48.3874C49.3875 47.6642 51.1477 46.0081 52.067 43.8208Z" fill="white"/>
</mask>
<g mask="url(#mask1_44_109)">
<path d="M47.3289 32.7369L47.2231 32.9066L47.224 32.9072L47.3289 32.7369ZM28.5246 38.7721L28.6049 38.5889L28.6037 38.5884L28.5246 38.7721ZM27.967 29.1845C25.0906 29.1845 22.7535 26.8478 22.7535 23.9776H22.3535C22.3535 27.0691 24.87 29.5845 27.967 29.5845V29.1845ZM33.1804 23.9776C33.1804 26.8478 30.8412 29.1845 27.967 29.1845V29.5845C31.0617 29.5845 33.5804 27.0691 33.5804 23.9776H33.1804ZM27.967 18.7706C30.8412 18.7706 33.1804 21.1074 33.1804 23.9776H33.5804C33.5804 20.886 31.0617 18.3706 27.967 18.3706V18.7706ZM22.7535 23.9776C22.7535 21.1073 25.0906 18.7706 27.967 18.7706V18.3706C24.87 18.3706 22.3535 20.886 22.3535 23.9776H22.7535ZM52.3077 37.9655C53.0062 39.7536 52.6485 41.9271 51.8827 43.7431L52.2513 43.8985C53.0366 42.0362 53.4326 39.7458 52.6803 37.8199L52.3077 37.9655ZM51.242 36.3405C51.7289 36.8244 52.0755 37.3739 52.3077 37.9655L52.6803 37.8199C52.4289 37.1795 52.0522 36.5818 51.5239 36.0568L51.242 36.3405ZM47.224 32.9072C48.6802 33.8036 49.9078 35.0183 51.242 36.3405L51.5239 36.0568C50.1961 34.7408 48.9359 33.4913 47.4337 32.5665L47.224 32.9072ZM42.8906 34.0906C43.1249 33.7759 43.672 33.134 44.431 32.7462C45.1778 32.3646 46.1308 32.2263 47.2231 32.9066L47.4346 32.5671C46.2047 31.8011 45.1002 31.9551 44.2491 32.39C43.4102 32.8185 42.8191 33.5169 42.5698 33.8517L42.8906 34.0906ZM41.8288 35.7281C42.1754 35.1556 42.5115 34.6007 42.8906 34.0906L42.5698 33.8517C42.1773 34.3797 41.8314 34.9514 41.4866 35.5209L41.8288 35.7281ZM41.6112 36.0864C41.6844 35.9667 41.7568 35.847 41.8288 35.7281L41.4866 35.5209C41.4145 35.64 41.3425 35.7589 41.2699 35.8779L41.6112 36.0864ZM41.5945 36.1141L41.6112 36.0864L41.2699 35.8779L41.2522 35.9071L41.5945 36.1141ZM37.2741 40.9782C39.3637 39.8099 40.57 37.8082 41.5945 36.1141L41.2522 35.9071C40.2196 37.6146 39.0629 39.5197 37.0797 40.6286L37.2741 40.9782ZM30.2051 39.9955C31.0146 40.5448 32.0116 41.2188 33.1882 41.5399C34.3756 41.8639 35.7382 41.8272 37.2741 40.9782L37.0806 40.6281C35.6407 41.4241 34.386 41.4521 33.2935 41.154C32.1904 40.8529 31.2453 40.2179 30.4297 39.6645L30.2051 39.9955ZM28.4442 38.9553C29.0157 39.2059 29.5935 39.5838 30.2051 39.9955L30.4297 39.6645C29.8214 39.255 29.2141 38.8561 28.6049 38.5889L28.4442 38.9553ZM23.9738 41.4474C24.9417 40.22 25.7343 39.4522 26.4491 39.0642C27.1481 38.6849 27.775 38.6668 28.4454 38.9558L28.6037 38.5884C27.819 38.2502 27.0635 38.2757 26.2583 38.7127C25.469 39.141 24.6352 39.9627 23.6599 41.1994L23.9738 41.4474ZM20.9186 45.2854C21.943 44.0124 22.9543 42.7351 23.9738 41.4474L23.6599 41.1994C22.6403 42.4873 21.6302 43.7631 20.607 45.0346L20.9186 45.2854ZM21.2271 47.4337C20.5147 46.9946 20.3738 45.9629 20.9186 45.2854L20.607 45.0346C19.9276 45.8794 20.0784 47.1956 21.0173 47.7742L21.2271 47.4337ZM25.8647 48.6494C24.08 48.6494 22.5097 48.2222 21.2271 47.4337L21.0173 47.7742C22.3706 48.6061 24.0157 49.0494 25.8647 49.0494V48.6494ZM44.1222 48.6494H25.8647V49.0494H44.1222V48.6494ZM47.1078 48.1973C46.1459 48.5112 45.1346 48.6494 44.1222 48.6494V49.0494C45.1706 49.0494 46.2245 48.9064 47.2319 48.5775L47.1078 48.1973ZM51.8827 43.7431C50.985 45.879 49.2682 47.4928 47.1078 48.1973L47.2319 48.5775C49.5068 47.8356 51.3103 46.1373 52.2513 43.8985L51.8827 43.7431Z" fill="url(#paint3_linear_44_109)" fill-opacity="0.5"/>
</g>
</g>
<defs>
<filter id="filter1_d_44_109" x="5.38672" y="3.57056" width="62.4954" height="60.2788" filterUnits="userSpaceOnUse" color-interpolation-filters="sRGB">
<feFlood flood-opacity="0" result="BackgroundImageFix"/>
<feColorMatrix in="SourceAlpha" type="matrix" values="0 0 0 0 0 0 0 0 0 0 0 0 0 0 0 0 0 0 127 0" result="hardAlpha"/>
<feOffset dx="5" dy="5"/>
<feGaussianBlur stdDeviation="5"/>
<feColorMatrix type="matrix" values="0 0 0 0 0.15375 0 0 0 0 0.522433 0 0 0 0 0.9 0 0 0 0.5 0"/>
<feBlend mode="normal" in2="BackgroundImageFix" result="effect1_dropShadow_44_109"/>
<feBlend mode="normal" in="SourceGraphic" in2="effect1_dropShadow_44_109" result="shape"/>
</filter>
<linearGradient id="paint0_linear_44_109" x1="2.80234" y1="7.7338" x2="52.3915" y2="24.4412" gradientUnits="userSpaceOnUse">
<stop stop-color="#39AFFD"/>
<stop offset="1" stop-color="#3A76FF"/>
</linearGradient>
<linearGradient id="paint1_linear_44_109" x1="20.7557" y1="14.9393" x2="48.2263" y2="49.0187" gradientUnits="userSpaceOnUse">
<stop stop-color="white" stop-opacity="0.25"/>
<stop offset="1" stop-color="white" stop-opacity="0.06"/>
</linearGradient>
<linearGradient id="paint2_linear_44_109" x1="50.5782" y1="24.0384" x2="14.3873" y2="25.3047" gradientUnits="userSpaceOnUse">
<stop stop-color="white"/>
<stop offset="1" stop-color="white" stop-opacity="0.2"/>
</linearGradient>
<linearGradient id="paint3_linear_44_109" x1="23.8872" y1="28.7277" x2="51.4802" y2="28.8912" gradientUnits="userSpaceOnUse">
<stop stop-color="white"/>
<stop offset="1" stop-color="white" stop-opacity="0"/>
</linearGradient>
</defs>
</svg>
